<svg width="400" height="50" viewBox="0 0 400 50" fill="none" xmlns="http://www.w3.org/2000/svg">
<mask id="mask0_473_2320" style="mask-type:alpha" maskUnits="userSpaceOnUse" x="0" y="0" width="400" height="50">
<rect width="400" height="50" rx="10" fill="#2E3D52"/>
</mask>
<g mask="url(#mask0_473_2320)">
<rect width="400" height="50" rx="10" fill="#2E3D52"/>
<line opacity="0.2" x1="-37.3536" y1="56.7539" x2="71.7542" y2="-52.3539" stroke="white"/>
<line opacity="0.2" x1="-27.3536" y1="56.7539" x2="194.646" y2="-165.246" stroke="white"/>
<line opacity="0.2" x1="-17.3536" y1="56.7539" x2="204.646" y2="-165.246" stroke="white"/>
<line opacity="0.2" x1="-7.35355" y1="56.7539" x2="214.646" y2="-165.246" stroke="white"/>
<line opacity="0.2" x1="2.64645" y1="56.7539" x2="224.646" y2="-165.246" stroke="white"/>
<line opacity="0.2" x1="12.6464" y1="56.7539" x2="234.646" y2="-165.246" stroke="white"/>
<line opacity="0.2" x1="22.6464" y1="56.7539" x2="244.646" y2="-165.246" stroke="white"/>
<line opacity="0.2" x1="32.6464" y1="56.7539" x2="254.646" y2="-165.246" stroke="white"/>
<line opacity="0.2" x1="42.6464" y1="56.7539" x2="264.646" y2="-165.246" stroke="white"/>
<line opacity="0.2" x1="52.6464" y1="56.7539" x2="274.646" y2="-165.246" stroke="white"/>
<line opacity="0.2" x1="62.6464" y1="56.7539" x2="284.646" y2="-165.246" stroke="white"/>
<line opacity="0.2" x1="72.6464" y1="56.7539" x2="294.646" y2="-165.246" stroke="white"/>
<line opacity="0.2" x1="82.6464" y1="56.7539" x2="304.646" y2="-165.246" stroke="white"/>
<line opacity="0.2" x1="92.6464" y1="56.7539" x2="314.646" y2="-165.246" stroke="white"/>
<line opacity="0.2" x1="102.646" y1="56.7539" x2="324.646" y2="-165.246" stroke="white"/>
<line opacity="0.2" x1="112.646" y1="56.7539" x2="334.646" y2="-165.246" stroke="white"/>
<line opacity="0.2" x1="122.646" y1="56.7539" x2="344.646" y2="-165.246" stroke="white"/>
<line opacity="0.2" x1="132.646" y1="56.7539" x2="354.646" y2="-165.246" stroke="white"/>
<line opacity="0.2" x1="142.646" y1="56.7539" x2="364.646" y2="-165.246" stroke="white"/>
<line opacity="0.2" x1="152.646" y1="56.7539" x2="374.646" y2="-165.246" stroke="white"/>
<line opacity="0.2" x1="162.646" y1="56.7539" x2="384.646" y2="-165.246" stroke="white"/>
<line opacity="0.2" x1="172.646" y1="56.7539" x2="394.646" y2="-165.246" stroke="white"/>
<line opacity="0.2" x1="182.646" y1="56.7539" x2="404.646" y2="-165.246" stroke="white"/>
<line opacity="0.2" x1="192.646" y1="56.7539" x2="414.646" y2="-165.246" stroke="white"/>
<line opacity="0.2" x1="202.646" y1="56.7539" x2="424.646" y2="-165.246" stroke="white"/>
<line opacity="0.2" x1="212.646" y1="56.7539" x2="434.646" y2="-165.246" stroke="white"/>
<line opacity="0.2" x1="222.646" y1="56.7539" x2="444.646" y2="-165.246" stroke="white"/>
<line opacity="0.2" x1="232.646" y1="56.7539" x2="454.646" y2="-165.246" stroke="white"/>
<line opacity="0.2" x1="242.646" y1="56.7539" x2="464.646" y2="-165.246" stroke="white"/>
<line opacity="0.2" x1="252.646" y1="56.7539" x2="474.646" y2="-165.246" stroke="white"/>
<line opacity="0.2" x1="262.646" y1="56.7539" x2="484.646" y2="-165.246" stroke="white"/>
<line opacity="0.2" x1="272.646" y1="56.7539" x2="494.646" y2="-165.246" stroke="white"/>
<line opacity="0.2" x1="282.646" y1="56.7539" x2="504.646" y2="-165.246" stroke="white"/>
<line opacity="0.2" x1="292.646" y1="56.7539" x2="514.646" y2="-165.246" stroke="white"/>
<line opacity="0.2" x1="302.646" y1="56.7539" x2="524.646" y2="-165.246" stroke="white"/>
<line opacity="0.2" x1="312.646" y1="56.7539" x2="534.646" y2="-165.246" stroke="white"/>
<line opacity="0.2" x1="322.646" y1="56.7539" x2="544.646" y2="-165.246" stroke="white"/>
<line opacity="0.2" x1="332.646" y1="56.7539" x2="554.646" y2="-165.246" stroke="white"/>
<line opacity="0.2" x1="342.646" y1="56.7539" x2="564.646" y2="-165.246" stroke="white"/>
<line opacity="0.2" x1="352.646" y1="56.7539" x2="574.646" y2="-165.246" stroke="white"/>
<line opacity="0.2" x1="362.646" y1="56.7539" x2="584.646" y2="-165.246" stroke="white"/>
<line opacity="0.2" x1="372.646" y1="56.7539" x2="594.646" y2="-165.246" stroke="white"/>
<line opacity="0.2" x1="382.646" y1="56.7539" x2="604.646" y2="-165.246" stroke="white"/>
</g>
</svg>
