<svg width="100" height="100" viewBox="0 0 100 100" fill="none" xmlns="http://www.w3.org/2000/svg">
<circle cx="50" cy="50" r="50" fill="#2E3D52"/>
<path d="M73.1559 34.997H65.8266L64.8206 38.801H60.9883L63.8506 28.001H75.0002L73.1559 34.997ZM70.3416 31.133H66.8565L66.6529 31.865H70.1499L70.3416 31.133Z" fill="white"/>
<path d="M54.8912 31.133L54.6996 31.865H62.0648L61.2385 34.997H53.8732L53.6816 35.717H61.0469L60.2445 38.801H49.0469L51.8732 28.001H63.0708L62.2445 31.133H54.8912Z" fill="white"/>
<path d="M50.2102 31.133H46.5695L44.5336 38.801H40.7013L42.7372 31.133H39.0605L39.8989 28.001H51.0486L50.2102 31.133Z" fill="white"/>
<path d="M25.8383 35.717H33.1916L33.3832 34.997H26.018L27.8742 28.001H39.0599L38.2215 31.133H30.8802L30.6766 31.865H38.0539L36.2096 38.801H25L25.8383 35.717Z" fill="white"/>
<path d="M61.952 72.801H32L34.24 64.577H53.888L54.4 62.657H34.752L36.992 54.305H56.608L57.152 52.353H37.44L39.68 44.001H69.6L61.952 72.801Z" fill="white"/>
</svg>
