<svg width="100" height="100" viewBox="0 0 100 100" fill="none" xmlns="http://www.w3.org/2000/svg">
<circle cx="50" cy="50" r="50" fill="#2E3D52"/>
<path d="M73.1559 34.4797H65.8266L64.8206 38.002H60.9883L63.8506 28.002H75.0002L73.1559 34.4797ZM70.3416 30.902H66.8565L66.6529 31.5797H70.1499L70.3416 30.902Z" fill="white"/>
<path d="M54.8912 30.902L54.6996 31.5797H62.0648L61.2385 34.4797H53.8732L53.6816 35.1464H61.0469L60.2445 38.002H49.0469L51.8732 28.002H63.0708L62.2445 30.902H54.8912Z" fill="white"/>
<path d="M50.2102 30.902H46.5695L44.5336 38.002H40.7013L42.7372 30.902H39.0605L39.8989 28.002H51.0486L50.2102 30.902Z" fill="white"/>
<path d="M25.8383 35.1464H33.1916L33.3832 34.4797H26.018L27.8742 28.002H39.0599L38.2215 30.902H30.8802L30.6766 31.5797H38.0539L36.2096 38.002H25L25.8383 35.1464Z" fill="white"/>
<path d="M57.48 71.802H47.24L52.68 51.354H33L35.24 43.002H65.16L57.48 71.802Z" fill="white"/>
</svg>
