<svg width="100" height="100" viewBox="0 0 100 100" fill="none" xmlns="http://www.w3.org/2000/svg">
<circle cx="50" cy="50" r="50" fill="#2E3D52"/>
<path d="M73.1559 33.4758H65.8266L64.8206 36.998H60.9883L63.8506 26.998H75.0002L73.1559 33.4758ZM70.3416 29.898H66.8565L66.6529 30.5758H70.1499L70.3416 29.898Z" fill="white"/>
<path d="M54.8912 29.898L54.6996 30.5758H62.0648L61.2385 33.4758H53.8732L53.6816 34.1425H61.0469L60.2445 36.998H49.0469L51.8732 26.998H63.0708L62.2445 29.898H54.8912Z" fill="white"/>
<path d="M50.2102 29.898H46.5695L44.5336 36.998H40.7013L42.7372 29.898H39.0605L39.8989 26.998H51.0486L50.2102 29.898Z" fill="white"/>
<path d="M25.8383 34.1425H33.1916L33.3832 33.4758H26.018L27.8742 26.998H39.0599L38.2215 29.898H30.8802L30.6766 30.5758H38.0539L36.2096 36.998H25L25.8383 34.1425Z" fill="white"/>
<path d="M61.79 72.598H30L38.024 41.998H69.814L61.79 72.598ZM46.592 50.872L46.048 52.946H56.078L56.622 50.872H46.592ZM53.188 63.86L53.732 61.82H43.702L43.158 63.86H53.188Z" fill="white"/>
</svg>
