<svg width="100" height="100" viewBox="0 0 100 100" fill="none" xmlns="http://www.w3.org/2000/svg">
<circle cx="50" cy="50" r="50" fill="#2E3D52"/>
<path d="M73.1559 34.996H65.8266L64.8206 38.8H60.9883L63.8506 28H75.0002L73.1559 34.996ZM70.3416 31.132H66.8565L66.6529 31.864H70.1499L70.3416 31.132Z" fill="white"/>
<path d="M54.8912 31.132L54.6996 31.864H62.0648L61.2385 34.996H53.8732L53.6816 35.716H61.0469L60.2445 38.8H49.0469L51.8732 28H63.0708L62.2445 31.132H54.8912Z" fill="white"/>
<path d="M50.2102 31.132H46.5695L44.5336 38.8H40.7013L42.7372 31.132H39.0605L39.8989 28H51.0486L50.2102 31.132Z" fill="white"/>
<path d="M25.8383 35.716H33.1916L33.3832 34.996H26.018L27.8742 28H39.0599L38.2215 31.132H30.8802L30.6766 31.864H38.0539L36.2096 38.8H25L25.8383 35.716Z" fill="white"/>
<path d="M45.68 52.351L45.136 54.303H64.816L59.92 72.799H30L37.648 43.999H67.44L65.2 52.351H45.68ZM42.928 62.655L42.416 64.575H51.856L52.368 62.655H42.928Z" fill="white"/>
</svg>
