<svg width="50" height="39" viewBox="0 0 50 39" fill="none" xmlns="http://www.w3.org/2000/svg">
<path d="M30.2778 0C29.5746 1.22746 29.1667 2.65513 29.1667 4.17857V5.57143H5.55556V25.0714H29.1667V30.6429H5.55556C2.49132 30.6429 0 28.1444 0 25.0714V5.57143C0 2.49844 2.49132 0 5.55556 0H30.2778ZM29.1667 34.8214C29.1667 36.3449 29.5746 37.7725 30.2778 39H10.4167C9.26215 39 8.33333 38.0685 8.33333 36.9107C8.33333 35.7529 9.26215 34.8214 10.4167 34.8214H29.1667ZM37.5 0H45.8333C48.1337 0 50 1.87165 50 4.17857V34.8214C50 37.1283 48.1337 39 45.8333 39H37.5C35.1996 39 33.3333 37.1283 33.3333 34.8214V4.17857C33.3333 1.87165 35.1996 0 37.5 0ZM39.5833 5.57143C38.4288 5.57143 37.5 6.5029 37.5 7.66071C37.5 8.81853 38.4288 9.75 39.5833 9.75H43.75C44.9045 9.75 45.8333 8.81853 45.8333 7.66071C45.8333 6.5029 44.9045 5.57143 43.75 5.57143H39.5833ZM39.5833 13.9286C38.4288 13.9286 37.5 14.86 37.5 16.0179C37.5 17.1757 38.4288 18.1071 39.5833 18.1071H43.75C44.9045 18.1071 45.8333 17.1757 45.8333 16.0179C45.8333 14.86 44.9045 13.9286 43.75 13.9286H39.5833ZM44.4444 26.4643C44.4444 24.9234 43.2031 23.6786 41.6667 23.6786C40.1302 23.6786 38.8889 24.9234 38.8889 26.4643C38.8889 28.0051 40.1302 29.25 41.6667 29.25C43.2031 29.25 44.4444 28.0051 44.4444 26.4643Z" fill="white"/>
</svg>
